<?xml version="1.0" encoding="utf-8"?>
<!-- Generator: Adobe Illustrator 21.0.0, SVG Export Plug-In . SVG Version: 6.00 Build 0)  -->
<svg version="1.1" id="Ebene_1" xmlns="http://www.w3.org/2000/svg" xmlns:xlink="http://www.w3.org/1999/xlink" x="0px" y="0px"
	 viewBox="0 0 363 49.4" style="enable-background:new 0 0 363 49.4;" xml:space="preserve">
<style type="text/css">
	.st0{fill:#676C6E;}
	.st1{fill:#E30613;}
</style>
<path class="st0" d="M24.8,11.5C20.6,9.2,17,8.3,12.9,8.3c-7.4,0-12.7,4.2-12.7,10.3c0,2.6,1.1,5.4,3.1,7.4c1.8,1.8,4.5,3.7,9.2,6.3
	c5,2.8,6.1,3.9,6.1,6.2c0,2.2-2.7,4-6,4c-3.1,0-8.1-2-12.6-5.2v8.4c5.8,2.8,8.7,3.6,13.2,3.6c7.9,0,13.6-4.7,13.6-11.2
	c0-4.7-3.3-8.8-9.9-12.4l-2.8-1.6c-4.1-2.3-5.7-3.8-5.7-5.6c0-2.1,2.1-3.5,5.1-3.5c3.3,0,6.2,1.1,11.4,4.2V11.5"/>
<path class="st0" d="M46.8,0.9L32.1,15.3v0.8H39v17.5c0,5.1,0.1,6.1,0.9,8.4c1.3,4.3,6.2,7.3,11.6,7.3c2.9,0,7-1.1,9.9-2.6v-7.3
	c-3.2,1.9-6.1,2.8-8.9,2.8c-3.8,0-5.5-1.9-5.6-6.8V16.1h12.5v-7H46.8V0.9"/>
<path class="st0" d="M73.6,9.1v39.5h7.8V27.9c0-6.6,4.3-12.1,9.3-12.1c2.1,0,5.1,1.5,7.6,3.9l4.1-6.9c-3.2-3-6.2-4.5-9.2-4.5
	c-3.9,0-7.2,2.6-11.4,9.2l-0.3,0.7h-0.2V9.1H73.6"/>
<path class="st0" d="M140.8,41.5c-2,1.4-3.5,2.1-4.4,2.1c-0.9,0-1.4-0.8-1.4-2V24.8c0-7-0.2-8.1-1.9-11c-2.1-3.4-6.9-5.5-12.2-5.5
	c-5.7,0-10,1.8-13.1,5.4v8.5c4-4.4,8.2-6.5,12.5-6.5c4.8,0,7,2.2,7,7v2.1l-6.8,2.4l-3.2,1.1c-6.6,2.3-10.3,6.4-10.3,11.4
	c0,5.5,4.1,9.8,9.6,9.8c3.5,0,7.2-1.4,10.6-4c0.6,2.8,2.5,4,5.9,4c2.4,0,4.1-0.7,7.7-3.1V41.5 M127.3,29.1v11.7
	c-2.1,2-4.5,3.1-7,3.1c-3.3,0-5.6-2.3-5.6-5.5c0-3.2,1.8-5,7.3-7.2L127.3,29.1z"/>
<path class="st1" d="M218,37.1c-4.4,3.3-9.2,4.8-14.3,4.8c-7.4,0-12.4-4.8-12.8-12.4h27.8v-1c0-12.3-6.8-20.2-17.3-20.2
	c-10.9,0-18.4,8.3-18.4,20.3c0,6.2,1.8,11.1,5.8,15.2c3.8,4,7.7,5.5,13.6,5.5c6.1,0,10.5-1.3,15.5-4.7V37.1 M191.1,24.8
	c1.1-6.2,4.8-9.8,10.4-9.8c5.6,0,9.1,3.5,9.5,9.8H191.1z"/>
<path class="st1" d="M160.2,0.9l-14.7,14.4v0.8h6.9v17.5c0,5.1,0.1,6.1,0.9,8.4c1.3,4.3,6.2,7.3,11.6,7.3c2.9,0,7-1.1,9.9-2.6v-7.3
	c-3.2,1.9-6.1,2.8-8.9,2.8c-3.8,0-5.5-1.9-5.6-6.8V16.1h12.5v-7h-12.5V0.9"/>
<path class="st1" d="M259.3,11c-4.8-2.1-7.5-2.7-11.4-2.7c-11.7,0-19.5,8.3-19.5,20.8c0,12.3,8,20.3,20.3,20.3
	c3.9,0,7.5-0.7,11.5-2.3v-7.7c-4.3,1.9-7.1,2.6-10.4,2.6c-8.3,0-13.6-5.1-13.6-13.2c0-7.7,5-13.2,12.1-13.2c1.8,0,3.5,0.3,5.3,0.9
	c1.8,0.6,3.6,1.5,5.7,2.9V11"/>
<path class="st0" d="M272.7,29.1c0-10.7,8.7-19.4,19.4-19.4c10.7,0,19.4,8.7,19.4,19.4s-8.7,19.4-19.4,19.4
	C281.4,48.5,272.7,39.8,272.7,29.1"/>
<path class="st0" d="M323.4,29.1c0-10.7,8.7-19.4,19.4-19.4c10.7,0,19.4,8.7,19.4,19.4s-8.7,19.4-19.4,19.4
	C332,48.5,323.4,39.8,323.4,29.1"/>
</svg>
